<?xml version="1.0" encoding="UTF-8"?>
<svg height="128px" viewBox="0 0 128 128" width="128px" xmlns="http://www.w3.org/2000/svg" xmlns:xlink="http://www.w3.org/1999/xlink">
    <clipPath id="a">
        <path d="m 8 5 h 112 v 111 h -112 z m 0 0"/>
    </clipPath>
    <clipPath id="b">
        <path d="m 18.03125 3.929688 h 91.902344 c 5.539062 0 10.03125 4.492187 10.03125 10.03125 v 92.007812 c 0 5.539062 -4.492188 10.03125 -10.03125 10.03125 h -91.902344 c -5.539062 0 -10.03125 -4.492188 -10.03125 -10.03125 v -92.007812 c 0 -5.539063 4.492188 -10.03125 10.03125 -10.03125 z m 0 0"/>
    </clipPath>
    <clipPath id="c">
        <path d="m 16 24 h 96 v 88 h -96 z m 0 0"/>
    </clipPath>
    <clipPath id="d">
        <path d="m 18.03125 3.929688 h 91.902344 c 5.539062 0 10.03125 4.492187 10.03125 10.03125 v 92.007812 c 0 5.539062 -4.492188 10.03125 -10.03125 10.03125 h -91.902344 c -5.539062 0 -10.03125 -4.492188 -10.03125 -10.03125 v -92.007812 c 0 -5.539063 4.492188 -10.03125 10.03125 -10.03125 z m 0 0"/>
    </clipPath>
    <clipPath id="e">
        <path d="m 8 48 h 56 v 68 h -56 z m 0 0"/>
    </clipPath>
    <clipPath id="f">
        <path d="m 18.03125 3.929688 h 91.902344 c 5.539062 0 10.03125 4.492187 10.03125 10.03125 v 92.007812 c 0 5.539062 -4.492188 10.03125 -10.03125 10.03125 h -91.902344 c -5.539062 0 -10.03125 -4.492188 -10.03125 -10.03125 v -92.007812 c 0 -5.539063 4.492188 -10.03125 10.03125 -10.03125 z m 0 0"/>
    </clipPath>
    <clipPath id="g">
        <path d="m 63 48 h 57 v 68 h -57 z m 0 0"/>
    </clipPath>
    <clipPath id="h">
        <path d="m 18.03125 3.929688 h 91.902344 c 5.539062 0 10.03125 4.492187 10.03125 10.03125 v 92.007812 c 0 5.539062 -4.492188 10.03125 -10.03125 10.03125 h -91.902344 c -5.539062 0 -10.03125 -4.492188 -10.03125 -10.03125 v -92.007812 c 0 -5.539063 4.492188 -10.03125 10.03125 -10.03125 z m 0 0"/>
    </clipPath>
    <clipPath id="i">
        <path d="m 8 73 h 112 v 43 h -112 z m 0 0"/>
    </clipPath>
    <clipPath id="j">
        <path d="m 18.03125 3.929688 h 91.902344 c 5.539062 0 10.03125 4.492187 10.03125 10.03125 v 92.007812 c 0 5.539062 -4.492188 10.03125 -10.03125 10.03125 h -91.902344 c -5.539062 0 -10.03125 -4.492188 -10.03125 -10.03125 v -92.007812 c 0 -5.539063 4.492188 -10.03125 10.03125 -10.03125 z m 0 0"/>
    </clipPath>
    <linearGradient id="k" gradientUnits="userSpaceOnUse" x1="76.640129" x2="75.153412" y1="107.327972" y2="82.080673">
        <stop offset="0" stop-color="#deddda"/>
        <stop offset="1" stop-color="#f6f5f4"/>
    </linearGradient>
    <g clip-path="url(#a)">
        <g clip-path="url(#b)">
            <path d="m 63.753906 5.824219 c -2.738281 0 -5.476562 0.875 -7.570312 2.621093 l -48.183594 40.101563 v 67.453125 h 111.503906 v -67.453125 l -48.179687 -40.101563 c -2.097657 -1.746093 -4.835938 -2.621093 -7.570313 -2.621093 z m 0 0" fill="#d2d0cc"/>
        </g>
    </g>
    <g clip-path="url(#c)">
        <g clip-path="url(#d)">
            <path d="m 20.371094 24 h 87.257812 c 2.414063 0 4.371094 2.007812 4.371094 4.484375 v 78.535156 c 0 2.476563 -1.957031 4.484375 -4.371094 4.484375 h -87.257812 c -2.414063 0 -4.371094 -2.007812 -4.371094 -4.484375 v -78.535156 c 0 -2.476563 1.957031 -4.484375 4.371094 -4.484375 z m 0 0" fill="#ffffff"/>
        </g>
    </g>
    <g clip-path="url(#e)">
        <g clip-path="url(#f)">
            <path d="m 8 48.546875 l 55.753906 47.21875 v 20.234375 h -55.753906 z m 0 0" fill="#f6f5f4"/>
        </g>
    </g>
    <g clip-path="url(#g)">
        <g clip-path="url(#h)">
            <path d="m 119.503906 48.546875 l -55.75 47.21875 v 20.234375 h 55.75 z m 0 0" fill="#f6f5f4"/>
        </g>
    </g>
    <g clip-path="url(#i)">
        <g clip-path="url(#j)">
            <path d="m 8 116 l 48.183594 -40.101562 c 4.191406 -3.492188 10.945312 -3.492188 15.140625 0 l 48.179687 40.101562 z m 0 0" fill="url(#k)"/>
        </g>
    </g>
</svg>
