<?xml version="1.0" encoding="UTF-8" standalone="no"?>
<svg
   viewBox="0 0 128 128"
   style="display:inline;enable-background:new"
   version="1.0"
   id="svg11300"
   height="128"
   width="128"
   xml:space="preserve"
   xmlns="http://www.w3.org/2000/svg"
   xmlns:svg="http://www.w3.org/2000/svg"
   xmlns:rdf="http://www.w3.org/1999/02/22-rdf-syntax-ns#"
   xmlns:cc="http://creativecommons.org/ns#"
   xmlns:dc="http://purl.org/dc/elements/1.1/"><title
     id="title4162">Adwaita Icon Template</title><defs
     id="defs3" /><metadata
     id="metadata4"><rdf:RDF><cc:Work
         rdf:about=""><dc:format>image/svg+xml</dc:format><dc:type
           rdf:resource="http://purl.org/dc/dcmitype/StillImage" /><dc:creator><cc:Agent><dc:title>GNOME Design Team</dc:title></cc:Agent></dc:creator><dc:source /><cc:license
           rdf:resource="http://creativecommons.org/licenses/by-sa/4.0/" /><dc:title>Adwaita Icon Template</dc:title><dc:subject><rdf:Bag /></dc:subject><dc:date /><dc:rights><cc:Agent><dc:title /></cc:Agent></dc:rights><dc:publisher><cc:Agent><dc:title /></cc:Agent></dc:publisher><dc:identifier /><dc:relation /><dc:language /><dc:coverage /><dc:description /><dc:contributor><cc:Agent><dc:title /></cc:Agent></dc:contributor></cc:Work><cc:License
         rdf:about="http://creativecommons.org/licenses/by-sa/4.0/"><cc:permits
           rdf:resource="http://creativecommons.org/ns#Reproduction" /><cc:permits
           rdf:resource="http://creativecommons.org/ns#Distribution" /><cc:requires
           rdf:resource="http://creativecommons.org/ns#Notice" /><cc:requires
           rdf:resource="http://creativecommons.org/ns#Attribution" /><cc:permits
           rdf:resource="http://creativecommons.org/ns#DerivativeWorks" /><cc:requires
           rdf:resource="http://creativecommons.org/ns#ShareAlike" /></cc:License></rdf:RDF></metadata><rect
     y="11.99988"
     x="12"
     height="104.00024"
     width="104"
     id="rect929-36-9"
     style="display:inline;vector-effect:none;fill:#f6f5f4;fill-opacity:1;stroke:none;stroke-width:0.25;stroke-linecap:butt;stroke-linejoin:miter;stroke-miterlimit:4;stroke-dasharray:none;stroke-dashoffset:0;stroke-opacity:1;marker:none;marker-start:none;marker-mid:none;marker-end:none;paint-order:normal;enable-background:new"
     rx="16" /><g
     id="g1735"
     transform="matrix(1.7295786,0,0,1.7295625,-122.96943,-184.41906)"
     style="stroke-width:2.18524"><path
       d="m 108.10114,121.0821 c -12.447767,0 -22.539321,10.08697 -22.548841,22.53368 v -0.001 17.45121 c 0.007,2.82504 2.29834,5.11422 5.126207,5.11422 0.007,0 0.018,-10e-4 0.0247,-10e-4 v 10e-4 h 17.406044 c 12.44918,-0.007 22.54074,-10.09826 22.54074,-22.54885 0,-12.45341 -10.09545,-22.54885 -22.54885,-22.54885 z"
       style="fill:#51a2da;fill-opacity:1;fill-rule:nonzero;stroke:none;stroke-width:0.770905"
       id="path28" /><path
       d="m 112.67208,130.36016 c -3.51684,0 -6.62305,2.64724 -7.05132,6.1214 -0.0303,0.29068 -0.043,0.50165 -0.0441,0.76482 v 14.1993 c 0,2.72309 -2.03412,4.57659 -4.58223,4.57659 -2.550577,0 -4.607977,-2.03694 -4.607977,-4.58223 0.0427,-2.79189 2.27224,-4.56001 4.879617,-4.63691 l 2.66384,-0.0236 v -3.75355 l -2.64195,0.018 c -4.743097,-0.0445 -8.518874,3.671 -8.656804,8.39611 0,4.59316 3.780007,8.34143 8.361884,8.34143 4.32294,0 7.92127,-3.38032 8.31391,-7.60695 l 0.0233,-5.38515 3.28119,-0.0208 c 2.54106,0.018 2.51495,-3.81176 -0.0261,-3.75919 l -3.25509,0.0219 v -5.77251 c 0.006,-1.66758 1.5875,-3.13901 3.34187,-3.13901 1.75542,0 3.6075,0.8763 3.6075,3.14325 0,0.32385 -0.008,0.51258 -0.0247,0.63112 -0.19685,1.05128 0.52246,2.05458 1.58185,2.20627 1.05834,0.15028 2.02989,-0.61207 2.13466,-1.67569 0.0593,-0.42193 0.0635,-0.79093 0.0635,-1.1617 0,-3.99909 -3.5761,-6.9028 -7.36282,-6.9028 z"
       style="fill:#ffffff;fill-opacity:1;fill-rule:nonzero;stroke:none;stroke-width:0.770905"
       id="path30" /></g></svg>
