<?xml version="1.0" encoding="UTF-8"?>
<svg height="128px" viewBox="0 0 128 128" width="128px" xmlns="http://www.w3.org/2000/svg" xmlns:xlink="http://www.w3.org/1999/xlink">
    <linearGradient id="a" gradientTransform="matrix(-1.196121 0 0 1.196121 136.930303 -196.237354)" gradientUnits="userSpaceOnUse" x1="78.692398" x2="67.121834" y1="238.307617" y2="249.878189">
        <stop offset="0" stop-color="#f6f5f4"/>
        <stop offset="0.257318" stop-color="#ffffff"/>
        <stop offset="0.6" stop-color="#c0bfbc"/>
        <stop offset="0.703125" stop-color="#f6f5f4"/>
        <stop offset="1" stop-color="#f6f5f4"/>
    </linearGradient>
    <linearGradient id="b" gradientTransform="matrix(-1.196121 0 0 1.196121 136.129862 8.554138)" gradientUnits="userSpaceOnUse" x1="88.507896" x2="85.886963" y1="67.679771" y2="70.300697">
        <stop offset="0" stop-color="#c0bfbc"/>
        <stop offset="1" stop-color="#f6f5f4"/>
    </linearGradient>
    <path d="m 54.519531 58.488281 l 20.296875 20.296875 l -10.007812 10.007813 l -4.371094 -4.085938 l -5.074219 5.074219 h -3.382812 v 3.382812 l -2.535157 2.535157 h -5.078124 v 5.078125 h -3.382813 v 3.382812 h -6.765625 v 6.765625 h -3.382812 v 3.382813 h -15.222657 l -5.921875 -5.921875 v -5.074219 z m 0 0" fill="url(#a)"/>
    <path d="m 52.425781 68.335938 c 2.148438 0.003906 3.203125 2.613281 1.667969 4.109374 l -40.171875 40.171876 l -3.382813 -3.382813 l 40.171876 -40.171875 c 0.449218 -0.464844 1.070312 -0.726562 1.714843 -0.726562 z m 0 0" fill="url(#b)"/>
    <path d="m 107.800781 23.808594 c -13.078125 -13.078125 -34.28125 -13.078125 -47.363281 0 c -13.078125 13.078125 -13.078125 34.285156 0 47.363281 c 13.082031 13.082031 34.285156 13.082031 47.363281 0 c 13.082031 -13.078125 13.082031 -34.285156 0 -47.363281 z m -10.121093 10.175781 c 2.816406 2.816406 2.828124 7.375 0.027343 10.175781 c -2.804687 2.804688 -7.359375 2.792969 -10.175781 -0.027344 c -2.816406 -2.816406 -2.832031 -7.371093 -0.027344 -10.175781 c 2.800782 -2.800781 7.359375 -2.789062 10.175782 0.027344 z m 0 0" fill="#f6f5f4"/>
</svg>
