<?xml version="1.0" encoding="UTF-8" standalone="no"?>
<svg
   viewBox="0 0 128 128"
   style="display:inline;enable-background:new"
   version="1.0"
   id="svg11300"
   height="128"
   width="128"
   xml:space="preserve"
   xmlns:xlink="http://www.w3.org/1999/xlink"
   xmlns="http://www.w3.org/2000/svg"
   xmlns:svg="http://www.w3.org/2000/svg"
   xmlns:rdf="http://www.w3.org/1999/02/22-rdf-syntax-ns#"
   xmlns:cc="http://creativecommons.org/ns#"
   xmlns:dc="http://purl.org/dc/elements/1.1/"><title
     id="title4162">Adwaita Icon Template</title><defs
     id="defs3"><clipPath
       id="b"><path
         d="M0 0h192v152H0z"
         id="path1" /></clipPath><clipPath
       id="c"><path
         d="M0 0h192v152H0z"
         id="path2" /></clipPath><clipPath
       id="d"><path
         d="M0 0h192v152H0z"
         id="path3" /></clipPath><clipPath
       id="e"><path
         d="M0 0h192v152H0z"
         id="path4" /></clipPath><mask
       id="i"><g
         filter="url(#a)"
         id="g5"><path
           fill-opacity=".1"
           d="M0 0h128v128H0z"
           id="path5" /></g></mask><mask
       id="g"><g
         filter="url(#a)"
         id="g6"><path
           fill-opacity=".2"
           d="M0 0h128v128H0z"
           id="path6" /></g></mask><mask
       id="k"><g
         filter="url(#a)"
         id="g7"><path
           fill-opacity=".2"
           d="M0 0h128v128H0z"
           id="path7" /></g></mask><mask
       id="m"><g
         filter="url(#a)"
         id="g8"><path
           fill-opacity=".1"
           d="M0 0h128v128H0z"
           id="path8" /></g></mask><g
       id="h"
       clip-path="url(#c)"><path
         d="M73.027 54.629v52.726a7.286 7.286 0 01-7.215 7.215H19.965V47.414h45.847a7.238 7.238 0 017.215 7.215zm0 0"
         id="path9" /></g><g
       id="j"
       clip-path="url(#d)"><path
         d="M70.86 54.629v52.726a5.037 5.037 0 01-5.047 5.047H19.965V49.578h45.847a5.038 5.038 0 015.047 5.05zm0 0"
         id="path10" /></g><g
       id="f"
       clip-path="url(#b)"><path
         d="M70.86 54.629v57.059c.003.292-.024.582-.087.867a5.007 5.007 0 01-4.96 4.18H19.965V49.577h45.847a5.038 5.038 0 015.047 5.05zm0 0"
         id="path11" /></g><g
       id="l"
       clip-path="url(#e)"><path
         d="M68.695 54.629v52.726a5.04 5.04 0 01-5.05 5.047h-43.68V49.578h43.68a5.041 5.041 0 015.05 5.05zm0 0"
         id="path12" /></g><filter
       id="a"
       filterUnits="objectBoundingBox"
       x="0"
       y="0"
       width="1"
       height="1"><feColorMatrix
         in="SourceGraphic"
         values="0 0 0 0 1 0 0 0 0 1 0 0 0 0 1 0 0 0 1 0"
         id="feColorMatrix12" /></filter></defs><metadata
     id="metadata4"><rdf:RDF><cc:Work
         rdf:about=""><dc:format>image/svg+xml</dc:format><dc:type
           rdf:resource="http://purl.org/dc/dcmitype/StillImage" /><dc:creator><cc:Agent><dc:title>GNOME Design Team</dc:title></cc:Agent></dc:creator><dc:source /><cc:license
           rdf:resource="http://creativecommons.org/licenses/by-sa/4.0/" /><dc:title>Adwaita Icon Template</dc:title><dc:subject><rdf:Bag /></dc:subject><dc:date /><dc:rights><cc:Agent><dc:title /></cc:Agent></dc:rights><dc:publisher><cc:Agent><dc:title /></cc:Agent></dc:publisher><dc:identifier /><dc:relation /><dc:language /><dc:coverage /><dc:description /><dc:contributor><cc:Agent><dc:title /></cc:Agent></dc:contributor></cc:Work><cc:License
         rdf:about="http://creativecommons.org/licenses/by-sa/4.0/"><cc:permits
           rdf:resource="http://creativecommons.org/ns#Reproduction" /><cc:permits
           rdf:resource="http://creativecommons.org/ns#Distribution" /><cc:requires
           rdf:resource="http://creativecommons.org/ns#Notice" /><cc:requires
           rdf:resource="http://creativecommons.org/ns#Attribution" /><cc:permits
           rdf:resource="http://creativecommons.org/ns#DerivativeWorks" /><cc:requires
           rdf:resource="http://creativecommons.org/ns#ShareAlike" /></cc:License></rdf:RDF></metadata><rect
     y="11.99988"
     x="12"
     height="104.00024"
     width="104"
     id="rect929-36-9"
     style="display:inline;vector-effect:none;fill:#f6f5f4;fill-opacity:1;stroke:none;stroke-width:0.25;stroke-linecap:butt;stroke-linejoin:miter;stroke-miterlimit:4;stroke-dasharray:none;stroke-dashoffset:0;stroke-opacity:1;marker:none;marker-start:none;marker-mid:none;marker-end:none;paint-order:normal;enable-background:new"
     rx="16" /><g
     id="g2"
     transform="matrix(0.76937132,0,0,0.76937132,17.754081,14.830631)"
     style="stroke-width:1.29976"><path
       d="M 108.438,11.918 H 81.995 a 7.56,7.56 0 0 0 -5.348,2.215 L 14.23,76.547 a 7.567,7.567 0 0 0 -2.214,5.348 v 26.445 a 7.56,7.56 0 0 0 7.562,7.558 h 26.445 a 7.557,7.557 0 0 0 5.344,-2.214 L 113.785,51.27 A 7.567,7.567 0 0 0 116,45.922 V 19.477 a 7.56,7.56 0 0 0 -7.563,-7.559 z m 0,0"
       fill="#28a8ea"
       id="path13"
       style="stroke-width:1.29976" /><path
       d="M 108.441,115.898 H 81.996 a 7.56,7.56 0 0 1 -5.348,-2.214 L 64.008,101.047 V 77.426 c 0,-7.465 6.05,-13.52 13.52,-13.52 h 23.617 l 12.64,12.64 a 7.567,7.567 0 0 1 2.215,5.35 v 26.445 a 7.56,7.56 0 0 1 -7.559,7.558 z m 0,0"
       fill="#0078d4"
       id="path14"
       style="stroke-width:1.29976" /><path
       d="m 19.578,11.918 h 26.445 c 2.004,0 3.926,0.797 5.344,2.215 l 12.64,12.637 v 23.62 c 0,7.465 -6.05,13.516 -13.515,13.516 H 26.872 L 14.23,51.27 A 7.567,7.567 0 0 1 12.016,45.922 V 19.477 a 7.56,7.56 0 0 1 7.562,-7.559 z m 0,0"
       fill="#50d9ff"
       id="path15"
       style="stroke-width:1.29976" /><use
       xlink:href="#f"
       transform="translate(-8,-16)"
       mask="url(#g)"
       id="use15"
       style="stroke-width:1.29976" /><use
       xlink:href="#h"
       transform="translate(-8,-16)"
       mask="url(#i)"
       id="use16"
       style="stroke-width:1.29976" /><use
       xlink:href="#j"
       transform="translate(-8,-16)"
       mask="url(#k)"
       id="use17"
       style="stroke-width:1.29976" /><use
       xlink:href="#l"
       transform="translate(-8,-16)"
       mask="url(#m)"
       id="use18"
       style="stroke-width:1.29976" /><path
       d="M 2.371,33.578 H 58.36 a 2.337,2.337 0 0 1 2.336,2.336 V 91.902 A 2.337,2.337 0 0 1 58.36,94.238 H 2.371 A 2.334,2.334 0 0 1 0.04,91.902 V 35.914 a 2.334,2.334 0 0 1 2.332,-2.336 z m 0,0"
       fill="#0078d4"
       id="path18"
       style="stroke-width:1.29976" /><path
       d="M 40.3,52.82 H 22.88 v 8.293 H 39.43 V 66.43 H 22.88 v 8.613 h 18.176 v 5.293 H 16.44 V 47.48 H 40.3 Z m 0,0"
       fill="#ffffff"
       id="path19"
       style="stroke-width:1.29976" /></g></svg>
