<svg xmlns="http://www.w3.org/2000/svg" width="128" height="128" style="display:inline;enable-background:new" version="1.0"><g style="display:inline;fill:#041e42;fill-opacity:1"><g style="display:inline;enable-background:new;fill:#041e42;fill-opacity:1" transform="translate(368 -172)"><rect width="104" height="104" x="-356" y="184" rx="16" style="display:inline;opacity:1;vector-effect:none;fill:#041e42;fill-opacity:1;stroke:none;stroke-width:.25;stroke-linecap:butt;stroke-linejoin:miter;stroke-miterlimit:4;stroke-dasharray:none;stroke-dashoffset:0;stroke-opacity:1;marker:none;marker-start:none;marker-mid:none;marker-end:none;paint-order:normal;enable-background:new"/></g></g><path fill="#fff" d="M84.269 62.254c.142 0 .284.006.425.011 5.666.203 10.318 4.43 11.139 9.89a12.464 12.464 0 0 1 .13 1.728 11.549 11.549 0 0 1-3.927 8.682 11.683 11.683 0 0 1-7.766 2.943c-3.45 0-6.555-1.494-8.697-3.864a16.115 16.115 0 0 0 4.698-10.984l.003-.205c0-.063.004-.124.004-.187 0-.161-.004-.322-.011-.482l-.006-.161a15.993 15.993 0 0 0-1.434-6.03 11.653 11.653 0 0 1 5.255-1.337zM46.86 73.624c.411 0 .813.042 1.2.123a16.023 16.023 0 0 0 1.811 4.624 16.34 16.34 0 0 0 2.358 3.114l.123.127a5.903 5.903 0 0 1-5.492 3.742 5.893 5.893 0 0 1-5.015-2.792 5.794 5.794 0 0 1-.884-3.072c0-.489.068-.961.182-1.416a5.633 5.633 0 0 1 .426-1.158 5.907 5.907 0 0 1 5.161-3.285c.044-.001.086-.007.13-.007m17.117-18.349c.117 0 .233.006.35.008a15.07 15.07 0 0 1 6.071 1.423h.003c.373.177.738.368 1.095.574a15.139 15.139 0 0 1 5.735 5.842c.096.176.187.358.278.538a14.816 14.816 0 0 1 1.547 6.607c0 .13-.007.258-.01.386a14.417 14.417 0 0 1-.119 1.542 14.926 14.926 0 0 1-5.023 9.34c-2.653 2.314-5.983 3.722-9.925 3.722a15.067 15.067 0 0 1-10.739-4.481 15.35 15.35 0 0 1-1.794-2.185 14.847 14.847 0 0 1-2.329-5.817 14.848 14.848 0 0 1 2.952-11.685 15.166 15.166 0 0 1 4.164-3.68 15.029 15.029 0 0 1 7.119-2.117l.194-.007c.144-.004.286-.01.431-.01zm-29.207 8.508c.108 0 .217.006.324.008a12.791 12.791 0 0 0-.399 3.17c0 4.281 2.12 8.077 5.367 10.412a7.038 7.038 0 0 0 .81 5.94 10.746 10.746 0 0 1-5.99 1.89h-.112C28.83 85.203 24 80.398 24 74.493c0-5.906 4.832-10.71 10.77-10.71zm63.33 9.215c3.253 0 5.899 2.632 5.899 5.866 0 3.234-2.646 5.865-5.898 5.865a5.897 5.897 0 0 1-4.454-2.032 12.754 12.754 0 0 0 3.536-8.815c0-.27-.011-.536-.028-.8.309-.05.623-.084.946-.084M47.614 55.334c.276 0 .55.014.822.033a11.854 11.854 0 0 0 1.23 3.476c.346.638.752 1.241 1.206 1.803a16.062 16.062 0 0 0-3.037 11.828 7.159 7.159 0 0 0-1.254-.06 7.092 7.092 0 0 0-1.214.152 7.142 7.142 0 0 0-4.82 3.653v-.003c-2.81-2.124-4.628-5.482-4.628-9.256a11.528 11.528 0 0 1 .808-4.234 11.696 11.696 0 0 1 4.755-5.66 11.68 11.68 0 0 1 6.132-1.732zm25.093-4.041c5.622 0 10.25 4.306 10.727 9.776a12.87 12.87 0 0 0-5.15 1.437 16.37 16.37 0 0 0-6.423-6.42 11.82 11.82 0 0 0 .207-4.772c.211-.013.424-.021.64-.021zm-12.479-8.801a10.777 10.777 0 0 1 10.508 8.367 10.637 10.637 0 0 1 .262 2.342c0 .797-.092 1.575-.26 2.325a16.264 16.264 0 0 0-6.15-1.45c-.203-.007-.405-.016-.609-.016-.072 0-.142.006-.213.006a16.252 16.252 0 0 0-9.074 2.893 16.366 16.366 0 0 0-3.035 2.718 10.805 10.805 0 0 1-1.52-2.73 10.487 10.487 0 0 1-.546-2.06l.001.002a10.604 10.604 0 0 1 .647-5.686c.083-.204.17-.407.265-.604a10.787 10.787 0 0 1 9.724-6.107zm-14.06 4.957c1.142 0 2.204.344 3.092.93a11.803 11.803 0 0 0-1.027 4.82c0 .318.017.629.04.939-.164-.01-.328-.014-.493-.016l-.167-.001c-2.293 0-4.446.6-6.314 1.646a5.505 5.505 0 0 1-.734-2.746c0-3.072 2.513-5.572 5.602-5.572" style="stroke-width:1"/></svg>