<?xml version="1.0" encoding="UTF-8"?>
<svg height="128px" viewBox="0 0 128 128" width="128px" xmlns="http://www.w3.org/2000/svg" xmlns:xlink="http://www.w3.org/1999/xlink">
    <linearGradient id="a" gradientTransform="matrix(1.392763 0 0 1.36981 0.540802 -207.04076)" gradientUnits="userSpaceOnUse" x1="17.762167" x2="71.778831" y1="227.322266" y2="187.823746">
        <stop offset="0" stop-color="#f5c211"/>
        <stop offset="1" stop-color="#ed333b"/>
    </linearGradient>
    <path d="m 15.636719 28 h 96.71875 c 4.21875 0 7.636719 3.363281 7.636719 7.507812 v 73.097657 c 0 4.148437 -3.417969 7.511719 -7.636719 7.511719 h -96.71875 c -4.21875 0 -7.636719 -3.363282 -7.636719 -7.511719 v -73.097657 c 0 -4.144531 3.417969 -7.507812 7.636719 -7.507812 z m 0 0" fill="#f6f5f4"/>
    <path d="m 17.9375 36 h 92.125 c 1.070312 0 1.9375 0.84375 1.9375 1.886719 v 68.226562 c 0 1.042969 -0.867188 1.886719 -1.9375 1.886719 h -92.125 c -1.070312 0 -1.9375 -0.84375 -1.9375 -1.886719 v -68.226562 c 0 -1.042969 0.867188 -1.886719 1.9375 -1.886719 z m 0 0" fill="url(#a)"/>
    <path d="m 50 54.113281 v 33.886719 h 3.445312 c 0.597657 0 1.1875 -0.152344 1.710938 -0.445312 l 24.109375 -13.550782 c 1.078125 -0.605468 1.742187 -1.730468 1.742187 -2.945312 c 0 -1.21875 -0.664062 -2.34375 -1.742187 -2.945313 l -24.109375 -13.554687 c -0.503906 -0.28125 -1.066406 -0.433594 -1.644531 -0.445313 c -0.019531 0 -0.042969 0 -0.066407 0 z m 0 0" fill="#ffffff"/>
</svg>
