<?xml version="1.0" encoding="UTF-8"?>
<svg height="16px" viewBox="0 0 16 16" width="16px" xmlns="http://www.w3.org/2000/svg">
    <g fill="#241f31">
        <path d="m 9.191406 1.015625 c -1.300781 0.089844 -2.523437 0.648437 -3.449218 1.574219 c -2.117188 2.117187 -2.117188 5.546875 0 7.664062 c 2.121093 2.121094 5.550781 2.121094 7.671874 0 c 2.117188 -2.117187 2.117188 -5.546875 0 -7.664062 c -1.113281 -1.113282 -2.652343 -1.6875 -4.222656 -1.574219 z m 1.808594 1.984375 c 1.105469 0 2 0.894531 2 2 s -0.894531 2 -2 2 s -2 -0.894531 -2 -2 s 0.894531 -2 2 -2 z m 0 0"/>
        <path d="m 8.015625 6.929688 l 1.011719 1.011718 c 0.300781 0.300782 0.875 2.019532 0.582031 2.328125 l -2.609375 2.730469 l -1.050781 -0.898438 l -1.832031 1.835938 l -1.117188 1.0625 h -2 v -2 l 5.929688 -6.070312 c 0.296874 -0.304688 0.785156 -0.300782 1.085937 0 z m 0 0"/>
        <path d="m 2 13 h 2 v 2 h -2 z m 0 0"/>
        <path d="m 3 12 h 2 v 2 h -2 z m 0 0"/>
        <path d="m 5 11 h 2 v 2 h -2 z m 0 0"/>
    </g>
</svg>
